<?xml version="1.0" standalone="no"?>
<!DOCTYPE svg PUBLIC "-//W3C//DTD SVG 20010904//EN"
 "http://www.w3.org/TR/2001/REC-SVG-20010904/DTD/svg10.dtd">
<svg version="1.0" xmlns="http://www.w3.org/2000/svg"
 width="512.000000pt" height="512.000000pt" viewBox="0 0 512.000000 512.000000"
 preserveAspectRatio="xMidYMid meet">
<metadata>
Created by potrace 1.16, written by Peter Selinger 2001-2019
</metadata>
<g transform="translate(0.000000,512.000000) scale(0.100000,-0.100000)"
fill="#000000" stroke="none">
<path d="M1898 4689 c-78 -11 -187 -50 -256 -91 -80 -48 -233 -197 -321 -314
-42 -56 -121 -178 -176 -270 -185 -311 -230 -372 -322 -431 -57 -37 -73 -74
-54 -126 18 -46 66 -59 198 -55 62 2 112 1 110 -2 -1 -3 -32 -66 -69 -140
-115 -232 -148 -392 -123 -583 57 -425 58 -473 5 -529 -13 -14 -20 -35 -20
-60 0 -53 35 -88 87 -88 49 0 168 56 220 104 l40 35 12 -64 c26 -145 97 -320
167 -416 69 -95 123 -248 124 -352 0 -46 44 -97 84 -97 66 0 88 29 137 180
l28 85 34 -76 c46 -99 85 -225 97 -308 11 -78 39 -111 96 -111 43 0 72 27 109
100 14 28 28 50 29 48 12 -12 125 -203 178 -298 67 -120 138 -269 158 -332 13
-43 52 -78 87 -78 48 0 80 27 98 82 37 113 177 381 299 571 l37 58 25 -48 c46
-89 98 -119 158 -92 29 14 41 41 56 132 12 76 59 216 99 295 l27 54 34 -104
c39 -120 69 -158 123 -158 61 0 77 23 94 134 18 128 48 205 121 315 72 108
115 209 153 356 15 61 28 111 29 112 0 2 21 -13 47 -33 67 -51 137 -84 193
-91 43 -5 51 -3 74 20 36 36 36 94 -1 138 -26 30 -27 38 -26 123 1 50 14 183
29 296 25 185 26 214 16 296 -15 120 -59 251 -135 404 l-62 125 98 -3 c54 -2
114 -1 134 3 47 9 83 46 83 85 0 45 -14 66 -64 95 -82 48 -141 124 -291 380
-149 254 -219 349 -350 480 -66 66 -145 135 -177 153 -224 132 -530 132 -845
1 l-73 -31 -72 30 c-208 86 -412 117 -590 91z m252 -183 c100 -15 224 -55 331
-106 35 -16 71 -30 79 -30 9 0 48 15 87 34 104 50 244 92 351 106 330 42 531
-104 828 -604 60 -100 125 -207 147 -239 21 -32 37 -60 35 -62 -10 -10 -117
51 -159 90 -41 38 -54 45 -89 45 -31 0 -47 -6 -65 -26 -42 -45 -34 -78 45
-189 198 -277 320 -548 321 -715 1 -57 -20 -251 -49 -460 l-8 -55 -42 86 c-43
88 -66 109 -117 109 -13 0 -36 -10 -50 -23 -24 -20 -29 -36 -46 -152 -40 -274
-84 -416 -173 -548 -69 -103 -76 -104 -76 -10 0 23 -3 49 -6 58 -11 26 -62 48
-101 40 -29 -5 -42 -17 -81 -78 -26 -40 -81 -140 -122 -223 -75 -149 -76 -150
-93 -128 -9 12 -29 25 -45 29 -54 11 -78 -8 -159 -132 -101 -155 -231 -374
-285 -479 -24 -46 -45 -84 -48 -84 -3 0 -24 38 -48 84 -24 46 -80 147 -126
223 -236 395 -275 435 -356 367 -17 -15 -32 -25 -33 -23 -2 2 -18 38 -36 79
-42 98 -159 305 -193 341 -28 31 -72 38 -110 18 -28 -15 -48 -69 -48 -129 l0
-51 -57 83 c-63 92 -99 173 -131 293 -25 95 -62 302 -62 352 0 68 -80 115
-141 82 -11 -5 -35 -43 -53 -83 -40 -87 -53 -99 -59 -54 -37 269 -55 469 -46
523 29 179 143 416 321 665 71 99 78 122 53 169 -16 33 -33 41 -80 41 -26 0
-46 -11 -85 -45 -49 -44 -101 -75 -148 -90 -22 -6 -21 -3 11 42 20 26 78 122
131 211 195 332 307 471 459 572 121 81 247 103 427 76z"/>
<path d="M2097 4036 c-108 -39 -176 -147 -267 -421 -41 -124 -71 -185 -126
-255 -24 -30 -50 -75 -59 -100 -21 -58 -21 -173 0 -243 32 -111 127 -235 233
-304 41 -26 52 -39 46 -51 -44 -104 -57 -154 -62 -245 -6 -128 7 -186 71 -317
85 -174 227 -300 407 -360 92 -31 280 -39 383 -16 92 21 213 79 288 139 142
114 259 347 259 517 0 58 -24 169 -52 244 -16 43 -18 61 -10 64 7 2 39 23 71
47 168 124 257 343 206 511 -8 27 -35 76 -61 109 -71 94 -89 130 -144 290 -83
241 -139 333 -232 379 -100 50 -247 30 -410 -56 l-76 -41 -79 40 c-148 77
-291 103 -386 69z m247 -204 c35 -16 89 -46 120 -66 87 -56 95 -56 190 3 159
98 283 126 330 77 33 -36 73 -124 127 -277 56 -161 91 -233 153 -316 38 -51
47 -70 48 -106 2 -138 -113 -279 -264 -321 -99 -28 -112 -78 -48 -184 104
-172 106 -329 6 -500 -54 -91 -50 -90 -155 -30 -134 78 -179 128 -196 220 l-7
35 68 13 c105 20 145 72 113 143 -6 14 -22 30 -34 37 -24 13 -34 12 -167 -10
-67 -12 -88 -11 -162 3 -46 9 -96 17 -111 17 -39 0 -75 -41 -75 -85 0 -56 39
-89 123 -105 l67 -12 -6 -37 c-16 -90 -65 -144 -198 -221 l-89 -51 -24 23
c-36 34 -102 175 -113 240 -16 104 15 221 91 339 31 49 35 74 18 112 -13 28
-36 41 -94 56 -109 28 -211 136 -245 260 -16 62 -6 101 44 168 59 79 95 154
151 313 55 158 105 262 137 285 34 24 123 14 202 -23z m257 -1768 c18 -20 69
-57 112 -82 73 -42 77 -47 55 -55 -126 -49 -290 -49 -416 0 -21 8 -16 12 50
50 40 23 91 60 113 82 22 22 42 40 46 41 3 0 21 -16 40 -36z"/>
<path d="M2059 3335 c-32 -17 -52 -63 -44 -98 8 -31 42 -62 76 -70 40 -10 77
-44 104 -97 26 -52 39 -60 91 -60 48 0 84 37 84 85 0 134 -210 296 -311 240z"/>
<path d="M2975 3341 c-114 -28 -224 -150 -225 -249 0 -48 37 -82 90 -82 43 0
90 33 90 64 0 29 51 75 100 91 50 17 80 50 80 90 0 29 -28 71 -55 83 -29 13
-36 13 -80 3z"/>
</g>
</svg>
